<svg width="24" height="24" viewBox="0 0 24 24" fill="none" xmlns="http://www.w3.org/2000/svg">
<path d="M21 6.76471C20.3375 7.07353 19.6233 7.27647 18.8834 7.37353C19.6405 6.90588 20.2256 6.16471 20.501 5.27353C19.7868 5.71471 18.9952 6.02353 18.1606 6.2C17.4809 5.44118 16.5258 5 15.4417 5C13.4197 5 11.7677 6.69412 11.7677 8.78529C11.7677 9.08529 11.8021 9.37647 11.8623 9.65C8.79924 9.49118 6.0717 7.98235 4.25621 5.69706C3.93786 6.25294 3.75717 6.90588 3.75717 7.59412C3.75717 8.90882 4.40249 10.0735 5.40057 10.7353C4.78967 10.7353 4.2218 10.5588 3.72275 10.2941V10.3206C3.72275 12.1559 4.99618 13.6912 6.6826 14.0353C6.14116 14.1872 5.57274 14.2084 5.02199 14.0971C5.25568 14.8492 5.71337 15.5074 6.3307 15.9791C6.94804 16.4507 7.69398 16.7121 8.46367 16.7265C7.15896 17.7857 5.54168 18.3582 3.87763 18.35C3.58509 18.35 3.29254 18.3324 3 18.2971C4.6348 19.3735 6.57935 20 8.66157 20C15.4417 20 19.1673 14.2294 19.1673 9.22647C19.1673 9.05882 19.1673 8.9 19.1587 8.73235C19.8815 8.20294 20.501 7.53235 21 6.76471Z" fill="#8F9BB7"/>
</svg>
