<svg width="64" height="24" viewBox="0 0 64 24" fill="none" xmlns="http://www.w3.org/2000/svg">
<path d="M18.9401 5.42L13.7701 2.43C12.7801 1.86 11.2301 1.86 10.2401 2.43L5.02008 5.44C2.95008 6.84 2.83008 7.05 2.83008 9.28V14.71C2.83008 16.94 2.95008 17.16 5.06008 18.58L10.2301 21.57C10.7301 21.86 11.3701 22 12.0001 22C12.6301 22 13.2701 21.86 13.7601 21.57L18.9801 18.56C21.0501 17.16 21.1701 16.95 21.1701 14.72V9.28C21.1701 7.05 21.0501 6.84 18.9401 5.42ZM12.0001 15.25C10.2101 15.25 8.75008 13.79 8.75008 12C8.75008 10.21 10.2101 8.75 12.0001 8.75C13.7901 8.75 15.2501 10.21 15.2501 12C15.2501 13.79 13.7901 15.25 12.0001 15.25Z" fill="#8699B0"/>
<path d="M60 6.75C61.5188 6.75 62.75 5.51878 62.75 4C62.75 2.48122 61.5188 1.25 60 1.25C58.4812 1.25 57.25 2.48122 57.25 4C57.25 5.51878 58.4812 6.75 60 6.75Z" fill="#00FC65"/>
<path d="M59.04 8.15C57.47 7.81 56.19 6.53 55.85 4.96C55.72 4.35 55.71 3.76 55.82 3.2C55.95 2.58 55.49 2 54.85 2H47C44.24 2 42 4.24 42 7V13.95C42 16.71 44.24 18.95 47 18.95H48.5C48.78 18.95 49.14 19.13 49.3 19.35L50.8 21.34C51.46 22.22 52.54 22.22 53.2 21.34L54.7 19.35C54.89 19.1 55.18 18.95 55.5 18.95H57.01C59.77 18.95 62 16.72 62 13.96V9.15C62 8.52 61.42 8.06 60.8 8.18C60.24 8.28 59.65 8.28 59.04 8.15ZM48 12C47.44 12 47 11.55 47 11C47 10.45 47.44 10 48 10C48.55 10 49 10.45 49 11C49 11.55 48.56 12 48 12ZM52 12C51.44 12 51 11.55 51 11C51 10.45 51.44 10 52 10C52.55 10 53 10.45 53 11C53 11.55 52.56 12 52 12ZM56 12C55.44 12 55 11.55 55 11C55 10.45 55.44 10 56 10C56.55 10 57 10.45 57 11C57 11.55 56.56 12 56 12Z" fill="#8699B0"/>
</svg>
