<svg width="36" height="36" viewBox="0 0 36 36" fill="none" xmlns="http://www.w3.org/2000/svg">
<rect width="36" height="36" rx="9" fill="white"/>
<path fill-rule="evenodd" clip-rule="evenodd" d="M23.25 22.125C23.25 21.5037 22.7463 21 22.125 21H15C12.9289 21 11.25 19.3211 11.25 17.25C11.25 15.1789 12.9289 13.5 15 13.5H17.25V15H15C13.7574 15 12.75 16.0074 12.75 17.25C12.75 18.4927 13.7574 19.5 15 19.5H22.125C23.5747 19.5 24.75 20.6753 24.75 22.125C24.75 23.5747 23.5747 24.75 22.125 24.75H12C11.5858 24.75 11.25 24.4142 11.25 24C11.25 23.5858 11.5858 23.25 12 23.25H22.125C22.7463 23.25 23.25 22.7463 23.25 22.125Z" fill="#56B80E"/>
<path d="M24 12H21V13.5H24C24.4142 13.5 24.75 13.1642 24.75 12.75C24.75 12.3358 24.4142 12 24 12Z" fill="#56B80E"/>
<path d="M24 15H21V16.5H24C24.4142 16.5 24.75 16.1642 24.75 15.75C24.75 15.3358 24.4142 15 24 15Z" fill="#56B80E"/>
<path d="M15.75 14.25C15.75 12.5931 17.0932 11.25 18.75 11.25H21.75C22.1642 11.25 22.5 11.5858 22.5 12V16.5C22.5 16.9142 22.1642 17.25 21.75 17.25H18.75C17.0932 17.25 15.75 15.9069 15.75 14.25Z" fill="#56B80E"/>
</svg>
