<svg width="19" height="20" viewBox="0 0 19 20" fill="none" xmlns="http://www.w3.org/2000/svg">
<path d="M18.17 6.58002V13.42C18.17 14.54 17.57 15.58 16.6 16.15L10.66 19.58C9.68998 20.14 8.48999 20.14 7.50999 19.58L1.57 16.15C0.599999 15.59 0 14.55 0 13.42V6.58002C0 5.46003 0.599999 4.41999 1.57 3.84999L7.50999 0.419999C8.47999 -0.14 9.67999 -0.14 10.66 0.419999L16.6 3.84999C17.57 4.41999 18.17 5.45003 18.17 6.58002Z" fill="#2F3237"/>
<path d="M9.09 8.99999C10.3768 8.99999 11.42 7.95679 11.42 6.66997C11.42 5.38315 10.3768 4.34002 9.09 4.34002C7.80317 4.34002 6.76 5.38315 6.76 6.66997C6.76 7.95679 7.80317 8.99999 9.09 8.99999Z" fill="#8699B0"/>
<path d="M6.3399 11.4601C5.0099 12.3501 5.0099 13.8001 6.3399 14.6901C7.8499 15.7001 10.3299 15.7001 11.8399 14.6901C13.1699 13.8001 13.1699 12.3501 11.8399 11.4601C10.3299 10.4601 7.8599 10.4601 6.3399 11.4601Z" fill="#8699B0"/>
</svg>
