<svg width="1279" height="40" viewBox="0 0 1279 40" fill="none" xmlns="http://www.w3.org/2000/svg">
<g filter="url(#filter0_d_0_223)">
<g filter="url(#filter1_b_0_223)">
<path d="M20 36.6667C10.7952 36.6667 3.33329 29.2048 3.33329 20C3.33329 10.7953 10.7952 3.33334 20 3.33334C29.2047 3.33334 36.6666 10.7953 36.6666 20C36.6666 29.2048 29.2047 36.6667 20 36.6667Z" fill="#058739"/>
</g>
<path d="M25.8334 20H15.8334" stroke="black" stroke-width="1.5" stroke-linecap="round" stroke-linejoin="round"/>
<path d="M19.1667 25L14.1667 20L19.1667 15" stroke="black" stroke-width="1.5" stroke-linecap="round" stroke-linejoin="round"/>
</g>
<g filter="url(#filter2_d_0_223)">
<g filter="url(#filter3_b_0_223)">
<path d="M1259 36.6667C1268.2 36.6667 1275.67 29.2048 1275.67 20C1275.67 10.7953 1268.2 3.33334 1259 3.33334C1249.8 3.33334 1242.33 10.7953 1242.33 20C1242.33 29.2048 1249.8 36.6667 1259 36.6667Z" fill="#00FC65"/>
</g>
<path d="M1253.17 20H1263.17" stroke="black" stroke-width="1.5" stroke-linecap="round" stroke-linejoin="round"/>
<path d="M1259.83 25L1264.83 20L1259.83 15" stroke="black" stroke-width="1.5" stroke-linecap="round" stroke-linejoin="round"/>
</g>
<defs>
<filter id="filter0_d_0_223" x="-16" y="-12" width="72" height="72" filterUnits="userSpaceOnUse" color-interpolation-filters="sRGB">
<feFlood flood-opacity="0" result="BackgroundImageFix"/>
<feColorMatrix in="SourceAlpha" type="matrix" values="0 0 0 0 0 0 0 0 0 0 0 0 0 0 0 0 0 0 127 0" result="hardAlpha"/>
<feOffset dy="4"/>
<feGaussianBlur stdDeviation="8"/>
<feComposite in2="hardAlpha" operator="out"/>
<feColorMatrix type="matrix" values="0 0 0 0 0.689667 0 0 0 0 1 0 0 0 0 0.183333 0 0 0 0.3 0"/>
<feBlend mode="normal" in2="BackgroundImageFix" result="effect1_dropShadow_0_223"/>
<feBlend mode="normal" in="SourceGraphic" in2="effect1_dropShadow_0_223" result="shape"/>
</filter>
<filter id="filter1_b_0_223" x="-16.6667" y="-16.6667" width="73.3334" height="73.3333" filterUnits="userSpaceOnUse" color-interpolation-filters="sRGB">
<feFlood flood-opacity="0" result="BackgroundImageFix"/>
<feGaussianBlur in="BackgroundImageFix" stdDeviation="10"/>
<feComposite in2="SourceAlpha" operator="in" result="effect1_backgroundBlur_0_223"/>
<feBlend mode="normal" in="SourceGraphic" in2="effect1_backgroundBlur_0_223" result="shape"/>
</filter>
<filter id="filter2_d_0_223" x="1223" y="-12" width="72" height="72" filterUnits="userSpaceOnUse" color-interpolation-filters="sRGB">
<feFlood flood-opacity="0" result="BackgroundImageFix"/>
<feColorMatrix in="SourceAlpha" type="matrix" values="0 0 0 0 0 0 0 0 0 0 0 0 0 0 0 0 0 0 127 0" result="hardAlpha"/>
<feOffset dy="4"/>
<feGaussianBlur stdDeviation="8"/>
<feComposite in2="hardAlpha" operator="out"/>
<feColorMatrix type="matrix" values="0 0 0 0 0.689667 0 0 0 0 1 0 0 0 0 0.183333 0 0 0 0.3 0"/>
<feBlend mode="normal" in2="BackgroundImageFix" result="effect1_dropShadow_0_223"/>
<feBlend mode="normal" in="SourceGraphic" in2="effect1_dropShadow_0_223" result="shape"/>
</filter>
<filter id="filter3_b_0_223" x="1222.33" y="-16.6667" width="73.3333" height="73.3333" filterUnits="userSpaceOnUse" color-interpolation-filters="sRGB">
<feFlood flood-opacity="0" result="BackgroundImageFix"/>
<feGaussianBlur in="BackgroundImageFix" stdDeviation="10"/>
<feComposite in2="SourceAlpha" operator="in" result="effect1_backgroundBlur_0_223"/>
<feBlend mode="normal" in="SourceGraphic" in2="effect1_backgroundBlur_0_223" result="shape"/>
</filter>
</defs>
</svg>
